<?xml version="1.0" standalone="no"?>
<!DOCTYPE svg PUBLIC "-//W3C//DTD SVG 20010904//EN"
 "http://www.w3.org/TR/2001/REC-SVG-20010904/DTD/svg10.dtd">
<svg version="1.0" xmlns="http://www.w3.org/2000/svg"
 width="300.000000pt" height="300.000000pt" viewBox="0 0 300.000000 300.000000"
 preserveAspectRatio="xMidYMid meet">
<metadata>
Created by potrace 1.10, written by Peter Selinger 2001-2011
</metadata>
<g transform="translate(0.000000,300.000000) scale(0.100000,-0.100000)"
fill="#000000" stroke="none">
<path d="M1420 2552 c-39 -19 -80 -88 -80 -134 0 -48 27 -96 69 -125 36 -25
40 -33 40 -68 l0 -40 -260 -173 c-258 -171 -261 -173 -286 -157 -49 32 -69
126 -28 134 59 11 106 86 91 147 -4 15 -22 42 -41 61 -26 26 -41 33 -73 33
-56 0 -104 -35 -121 -88 -12 -41 -12 -46 13 -93 14 -28 26 -65 26 -82 0 -58
22 -111 61 -150 l39 -39 0 -114 0 -114 -55 0 c-50 0 -56 2 -70 30 -41 80 -171
80 -219 0 -20 -35 -21 -92 -2 -129 45 -86 176 -86 224 0 15 26 22 29 69 29
l51 0 4 -141 3 -141 43 -39 44 -38 -56 -64 -56 -63 -58 4 c-47 3 -63 0 -92
-20 -91 -61 -92 -195 -1 -255 61 -41 159 -23 204 38 26 37 33 108 14 146 l-16
29 67 73 67 73 208 -137 c207 -137 207 -137 207 -174 0 -30 -5 -38 -30 -49
-16 -7 -38 -28 -49 -46 -66 -107 2 -236 124 -236 149 0 200 205 70 281 -28 17
-35 27 -35 52 0 30 11 39 208 169 l207 138 69 -70 c66 -65 69 -70 58 -95 -18
-40 -14 -106 8 -143 61 -100 204 -95 258 8 27 54 27 82 2 137 -27 61 -70 85
-143 80 l-57 -3 -61 63 -61 64 41 29 c22 16 43 40 46 52 3 13 6 79 8 148 l2
125 51 3 c49 3 53 1 73 -32 45 -72 150 -80 204 -16 72 85 19 210 -88 210 -58
0 -91 -16 -116 -57 -19 -31 -24 -33 -75 -33 l-54 0 0 114 0 115 30 21 c43 31
70 89 70 151 0 40 5 58 25 81 63 74 3 198 -95 198 -71 0 -120 -53 -120 -129 0
-31 7 -47 34 -75 18 -20 43 -36 55 -36 45 0 17 -115 -34 -138 -20 -9 -56 12
-284 164 l-261 174 0 38 c0 33 5 40 35 56 108 58 104 214 -7 272 -37 19 -96
18 -138 -4z m115 -92 c20 -23 23 -63 5 -85 -7 -8 -26 -15 -43 -15 -60 0 -88
59 -47 100 25 25 62 26 85 0z m-668 -275 c5 -16 -59 -37 -72 -24 -7 7 -4 15
10 25 22 16 56 15 62 -1z m1280 -2 c6 -17 -58 -46 -71 -32 -8 7 -4 16 13 30
25 21 52 22 58 2z m-428 -338 c119 -79 210 -146 210 -155 0 -8 -37 -40 -82
-70 -45 -30 -143 -97 -218 -149 l-137 -93 -221 148 c-121 82 -221 155 -221
161 0 15 430 305 446 301 7 -2 107 -66 223 -143z m-1055 -245 c48 -18 31 -37
-31 -35 -61 2 -81 19 -41 34 31 13 42 13 72 1z m1266 -228 l0 -77 -156 -105
c-86 -58 -162 -109 -170 -113 -11 -7 -14 6 -14 71 l0 79 168 111 c92 62 168
112 170 112 1 0 2 -35 2 -78z m-695 -40 l160 -107 3 -77 c2 -43 0 -78 -3 -78
-3 0 -80 50 -170 110 l-165 110 0 75 c0 41 3 75 8 75 4 -1 79 -49 167 -108z
m-415 -442 c24 -24 26 -57 3 -82 -34 -38 -103 -11 -103 40 0 56 61 81 100 42z
m1430 0 c24 -24 25 -48 4 -78 -31 -44 -104 -20 -104 35 0 57 61 82 100 43z
m-733 -205 c5 -15 -75 -36 -84 -22 -3 5 3 16 13 24 21 15 66 14 71 -2z"/>
<path d="M1450 1850 c-24 -24 -25 -48 -4 -78 31 -45 104 -19 104 37 0 55 -61
80 -100 41z"/>
<path d="M1266 1724 c-36 -35 -7 -104 42 -104 29 0 62 34 62 63 0 49 -70 76
-104 41z"/>
<path d="M1636 1724 c-36 -35 -7 -104 42 -104 27 0 62 33 62 58 0 52 -68 82
-104 46z"/>
<path d="M1446 1598 c-9 -12 -16 -29 -16 -38 0 -9 7 -26 16 -38 31 -45 104
-17 104 40 0 53 -74 79 -104 36z"/>
<path d="M1112 2370 c-44 -32 -51 -50 -27 -70 12 -10 21 -8 48 9 53 33 72 58
57 76 -18 22 -32 19 -78 -15z"/>
<path d="M1797 2393 c-17 -16 -4 -44 35 -72 48 -36 51 -36 72 -16 21 21 12 38
-35 69 -39 26 -60 32 -72 19z"/>
<path d="M1076 2167 c-32 -26 -33 -60 0 -65 29 -4 76 35 72 62 -4 29 -37 31
-72 3z"/>
<path d="M1840 2170 c-9 -17 -6 -24 16 -45 32 -30 60 -32 74 -6 8 16 4 24 -21
45 -37 31 -55 33 -69 6z"/>
<path d="M624 1877 c-3 -8 -4 -39 -2 -68 3 -50 5 -54 28 -54 24 0 25 2 25 65
0 60 -2 65 -23 68 -12 2 -24 -3 -28 -11z"/>
<path d="M2307 1883 c-14 -14 -7 -110 9 -124 24 -20 48 1 52 46 5 59 -5 85
-32 85 -12 0 -26 -3 -29 -7z"/>
<path d="M632 1278 c-7 -7 -12 -35 -12 -64 0 -55 15 -79 44 -68 31 12 18 144
-14 144 -3 0 -11 -5 -18 -12z"/>
<path d="M2304 1257 c-18 -72 19 -146 52 -103 14 20 19 82 8 110 -10 26 -53
20 -60 -7z"/>
<path d="M1057 883 c-15 -15 -5 -41 24 -62 32 -24 55 -22 65 4 13 33 -64 83
-89 58z"/>
<path d="M1862 872 c-27 -21 -27 -65 0 -70 25 -5 81 49 73 71 -9 22 -44 22
-73 -1z"/>
<path d="M1077 693 c-17 -16 -4 -45 32 -69 45 -29 75 -29 79 2 5 34 -88 90
-111 67z"/>
<path d="M1828 673 c-64 -44 -40 -95 28 -58 45 24 66 49 58 69 -9 23 -43 19
-86 -11z"/>
</g>
</svg>
